<?xml version="1.0" encoding="UTF-8" standalone="no"?>
<svg width="33px" height="16px" viewBox="0 0 38 21" version="1.1" xmlns="http://www.w3.org/2000/svg" xmlns:xlink="http://www.w3.org/1999/xlink" xmlns:sketch="http://www.bohemiancoding.com/sketch/ns">
    <!-- Generator: Sketch 3.4.2 (15855) - http://www.bohemiancoding.com/sketch -->
    <title>arrow left circle</title>
    <desc>Created with Sketch.</desc>
    <defs></defs>
    <g id="Page-1" stroke="none" stroke-width="1" fill="none" fill-rule="evenodd" sketch:type="MSPage">
        <g id="Desktop-HD-Copy-2" sketch:type="MSArtboardGroup" transform="translate(-60.000000, -60.000000)" fill="#000000">
            <g id="arrow-left-circle" sketch:type="MSLayerGroup" transform="translate(60.000000, 60.000000)">
                <g id="Page-1" sketch:type="MSShapeGroup">
                    <g>
                        <g id="Icon-Set">
                            <path d="M5.0089375,8.96875 L11.32075,2.66 C11.9179375,2.0628125 11.9179375,1.098125 11.32075,0.485625 C10.7220312,-0.1115625 9.75275,-0.1115625 9.15403125,0.485625 L0.49175,9.1525 C0.12578125,9.52 0.0109375,10.0253125 0.09515625,10.5 C0.0109375,10.9746875 0.12578125,11.48 0.49175,11.8475 L9.15403125,20.514375 C9.75275,21.1115625 10.7220312,21.1115625 11.32075,20.514375 C11.9179375,19.9171875 11.9179375,18.9371875 11.32075,18.34 L5.0089375,12.03125 L35.7771126,12.0312503 C36.6223626,12.0312503 37.3083626,11.3421878 37.3083626,10.5000003 C37.3083626,9.65781284 36.6223626,8.96875034 35.7771126,8.96875034 L5.0089375,8.96875 Z" id="arrow-left-circle"></path>
                        </g>
                    </g>
                </g>
            </g>
        </g>
    </g>
</svg>